<svg width="32" height="32" viewBox="0 0 32 32" fill="none" xmlns="http://www.w3.org/2000/svg">
<path d="M15.9867 2.66663C8.62669 2.66663 2.66669 8.63996 2.66669 16C2.66669 23.36 8.62669 29.3333 15.9867 29.3333C23.36 29.3333 29.3334 23.36 29.3334 16C29.3334 8.63996 23.36 2.66663 15.9867 2.66663ZM16 26.6666C10.1067 26.6666 5.33335 21.8933 5.33335 16C5.33335 10.1066 10.1067 5.33329 16 5.33329C21.8934 5.33329 26.6667 10.1066 26.6667 16C26.6667 21.8933 21.8934 26.6666 16 26.6666ZM16.6667 9.33329H14.6667V17.3333L21.6667 21.5333L22.6667 19.8933L16.6667 16.3333V9.33329Z" fill="#FF304F"/>
</svg>
