<svg width="20" height="20" viewBox="0 0 20 20" fill="none" xmlns="http://www.w3.org/2000/svg">
<path d="M9.99199 1.66669C5.39199 1.66669 1.66699 5.40002 1.66699 10C1.66699 14.6 5.39199 18.3334 9.99199 18.3334C14.6003 18.3334 18.3337 14.6 18.3337 10C18.3337 5.40002 14.6003 1.66669 9.99199 1.66669ZM10.0003 16.6667C6.31699 16.6667 3.33366 13.6834 3.33366 10C3.33366 6.31669 6.31699 3.33335 10.0003 3.33335C13.6837 3.33335 16.667 6.31669 16.667 10C16.667 13.6834 13.6837 16.6667 10.0003 16.6667ZM10.417 5.83335H9.16699V10.8334L13.542 13.4584L14.167 12.4334L10.417 10.2084V5.83335Z" fill="white"/>
</svg>
