<svg width="20" height="20" viewBox="0 0 20 20" fill="none" xmlns="http://www.w3.org/2000/svg">
<path d="M5.83333 9.16669H7.5V10.8334H5.83333V9.16669ZM17.5 5.00002V16.6667C17.5 17.5834 16.75 18.3334 15.8333 18.3334H4.16667C3.24167 18.3334 2.5 17.5834 2.5 16.6667L2.50833 5.00002C2.50833 4.08335 3.24167 3.33335 4.16667 3.33335H5V1.66669H6.66667V3.33335H13.3333V1.66669H15V3.33335H15.8333C16.75 3.33335 17.5 4.08335 17.5 5.00002ZM4.16667 6.66669H15.8333V5.00002H4.16667V6.66669ZM15.8333 16.6667V8.33335H4.16667V16.6667H15.8333ZM12.5 10.8334H14.1667V9.16669H12.5V10.8334ZM9.16667 10.8334H10.8333V9.16669H9.16667V10.8334Z" fill="#E2F3F5"/>
</svg>
