<svg width="32" height="32" viewBox="0 0 32 32" fill="none" xmlns="http://www.w3.org/2000/svg">
<path d="M9.33333 14.6666H12V17.3333H9.33333V14.6666ZM28 7.99996V26.6666C28 28.1333 26.8 29.3333 25.3333 29.3333H6.66667C5.18667 29.3333 4 28.1333 4 26.6666L4.01333 7.99996C4.01333 6.53329 5.18667 5.33329 6.66667 5.33329H8V2.66663H10.6667V5.33329H21.3333V2.66663H24V5.33329H25.3333C26.8 5.33329 28 6.53329 28 7.99996ZM6.66667 10.6666H25.3333V7.99996H6.66667V10.6666ZM25.3333 26.6666V13.3333H6.66667V26.6666H25.3333ZM20 17.3333H22.6667V14.6666H20V17.3333ZM14.6667 17.3333H17.3333V14.6666H14.6667V17.3333Z" fill="#FF304F"/>
</svg>
