<svg width="20" height="20" viewBox="0 0 20 20" fill="none" xmlns="http://www.w3.org/2000/svg">
<path d="M9.99967 10C9.08301 10 8.33301 9.25002 8.33301 8.33335C8.33301 7.41669 9.08301 6.66669 9.99967 6.66669C10.9163 6.66669 11.6663 7.41669 11.6663 8.33335C11.6663 9.25002 10.9163 10 9.99967 10ZM14.9997 8.50002C14.9997 5.47502 12.7913 3.33335 9.99967 3.33335C7.20801 3.33335 4.99967 5.47502 4.99967 8.50002C4.99967 10.45 6.62467 13.0334 9.99967 16.1167C13.3747 13.0334 14.9997 10.45 14.9997 8.50002ZM9.99967 1.66669C13.4997 1.66669 16.6663 4.35002 16.6663 8.50002C16.6663 11.2667 14.4413 14.5417 9.99967 18.3334C5.55801 14.5417 3.33301 11.2667 3.33301 8.50002C3.33301 4.35002 6.49967 1.66669 9.99967 1.66669Z" fill="#F3F169"/>
</svg>
