<svg width="29" height="29" viewBox="0 0 29 29" fill="none" xmlns="http://www.w3.org/2000/svg">
<path d="M23.1068 12.5131C23.1068 19.2817 14.3703 25.0834 14.3703 25.0834C14.3703 25.0834 5.63379 19.2817 5.63379 12.5131C5.63379 10.2051 6.55424 7.9916 8.19266 6.35957C9.83107 4.72753 12.0532 3.81067 14.3703 3.81067C16.6874 3.81067 18.9095 4.72753 20.548 6.35957C22.1864 7.9916 23.1068 10.2051 23.1068 12.5131Z" stroke="#1E1E1E" stroke-width="2" stroke-linecap="round" stroke-linejoin="round"/>
<path d="M14.3696 16.2198C16.2996 16.2198 17.8642 14.6325 17.8642 12.6744C17.8642 10.7163 16.2996 9.12891 14.3696 9.12891C12.4396 9.12891 10.875 10.7163 10.875 12.6744C10.875 14.6325 12.4396 16.2198 14.3696 16.2198Z" stroke="#1E1E1E" stroke-width="2" stroke-linecap="round" stroke-linejoin="round"/>
</svg>
