<svg width="25" height="24" viewBox="0 0 25 24" fill="none" xmlns="http://www.w3.org/2000/svg">
<path d="M20.0194 4.88129L19.2835 4.14535C19.0755 3.93736 18.6915 3.96937 18.4515 4.25731L15.8913 6.80128C14.7392 6.30533 13.4754 6.06533 12.1473 6.06533C8.19519 6.08127 4.77141 8.38524 3.12329 11.6974C3.02726 11.9054 3.02726 12.1614 3.12329 12.3374C3.89122 13.9054 5.04329 15.2014 6.4833 16.1774L4.3873 18.3053C4.1473 18.5453 4.11529 18.9293 4.27534 19.1373L5.01128 19.8733C5.21928 20.0812 5.60326 20.0492 5.84326 19.7613L19.8912 5.7134C20.1952 5.47354 20.2272 5.08958 20.0192 4.88156L20.0194 4.88129ZM12.9953 9.71318C12.7233 9.64916 12.4353 9.5692 12.1633 9.5692C10.8033 9.5692 9.71538 10.6572 9.71538 12.0171C9.71538 12.2891 9.7794 12.5771 9.85935 12.8491L8.78724 13.9051C8.46728 13.3452 8.2913 12.7211 8.2913 12.0172C8.2913 9.88919 10.0033 8.17717 12.1313 8.17717C12.8354 8.17717 13.4593 8.35315 14.0193 8.67311L12.9953 9.71318Z" fill="#666666" fill-opacity="0.8"/>
<path d="M21.1714 11.6974C20.6114 10.5774 19.8753 9.56942 18.9634 8.75339L15.9874 11.6974V12.0174C15.9874 14.1453 14.2754 15.8574 12.1474 15.8574H11.8274L9.93945 17.7453C10.6435 17.8893 11.3795 17.9853 12.0995 17.9853C16.0516 17.9853 19.4754 15.6814 21.1235 12.3532C21.2675 12.1292 21.2675 11.9052 21.1714 11.6972L21.1714 11.6974Z" fill="#666666" fill-opacity="0.8"/>
</svg>
