<svg width="31" height="30" viewBox="0 0 31 30" fill="none" xmlns="http://www.w3.org/2000/svg">
<path d="M26.6211 5.40441V24.5956C26.6211 25.0344 26.4468 25.4552 26.1365 25.7654C25.8263 26.0757 25.4055 26.25 24.9667 26.25H5.77551C5.33673 26.25 4.91592 26.0757 4.60566 25.7654C4.2954 25.4552 4.12109 25.0344 4.12109 24.5956V5.40441C4.12109 4.96563 4.2954 4.54483 4.60566 4.23457C4.91592 3.9243 5.33673 3.75 5.77551 3.75H24.9667C25.4055 3.75 25.8263 3.9243 26.1365 4.23457C26.4468 4.54483 26.6211 4.96563 26.6211 5.40441ZM10.7387 12.3529H7.42992V22.9412H10.7387V12.3529ZM11.0365 8.71323C11.0383 8.46295 10.9907 8.21477 10.8965 7.98287C10.8024 7.75097 10.6634 7.53989 10.4877 7.36168C10.3119 7.18348 10.1028 7.04163 9.87224 6.94425C9.64167 6.84686 9.39417 6.79585 9.14389 6.79412H9.08433C8.57535 6.79412 8.08721 6.99631 7.72731 7.35621C7.3674 7.71612 7.16521 8.20425 7.16521 8.71323C7.16521 9.22222 7.3674 9.71035 7.72731 10.0703C8.08721 10.4302 8.57535 10.6324 9.08433 10.6324C9.33463 10.6385 9.5837 10.5953 9.81729 10.5052C10.0509 10.415 10.2644 10.2797 10.4457 10.1071C10.627 9.93437 10.7725 9.72765 10.8739 9.49871C10.9753 9.26977 11.0305 9.0231 11.0365 8.77279V8.71323ZM23.3123 16.5088C23.3123 13.3257 21.2873 12.0882 19.2755 12.0882C18.6168 12.0553 17.961 12.1955 17.3734 12.4951C16.7859 12.7947 16.2871 13.2431 15.927 13.7956H15.8343V12.3529H12.724V22.9412H16.0329V17.3096C15.985 16.7328 16.1667 16.1604 16.5384 15.7168C16.9102 15.2732 17.4419 14.9942 18.0182 14.9404H18.1439C19.1961 14.9404 19.977 15.6022 19.977 17.2699V22.9412H23.2858L23.3123 16.5088Z" fill="white"/>
</svg>
