<svg width="31" height="30" viewBox="0 0 31 30" fill="none" xmlns="http://www.w3.org/2000/svg">
<path fill-rule="evenodd" clip-rule="evenodd" d="M15.3711 3.75C12.3156 3.75 11.9331 3.76275 10.7331 3.8175C9.53534 3.87225 8.71709 4.06275 8.00159 4.341C7.25159 4.623 6.57134 5.0655 6.00884 5.6385C5.43676 6.20035 4.99399 6.88012 4.71134 7.6305C4.43459 8.346 4.24334 9.165 4.18859 10.3628C4.13459 11.562 4.12109 11.9438 4.12109 15C4.12109 18.0562 4.13384 18.438 4.18859 19.638C4.24334 20.8358 4.43384 21.654 4.71209 22.3695C4.99409 23.1195 5.43659 23.7997 6.00959 24.3622C6.57146 24.9343 7.25123 25.3771 8.00159 25.6597C8.71709 25.9373 9.53534 26.1278 10.7331 26.1825C11.9331 26.2372 12.3156 26.25 15.3711 26.25C18.4266 26.25 18.8091 26.2372 20.0091 26.1825C21.2068 26.1278 22.0251 25.9373 22.7406 25.659C23.4906 25.377 24.1708 24.9345 24.7333 24.3615C25.3054 23.7997 25.7482 23.1199 26.0308 22.3695C26.3083 21.654 26.4988 20.8358 26.5536 19.638C26.6083 18.438 26.6211 18.0555 26.6211 15C26.6211 11.9445 26.6083 11.562 26.5536 10.362C26.4988 9.16425 26.3083 8.346 26.0301 7.6305C25.7477 6.8798 25.3049 6.19974 24.7326 5.63775C24.1707 5.06567 23.491 4.62289 22.7406 4.34025C22.0251 4.0635 21.2061 3.87225 20.0083 3.8175C18.8091 3.7635 18.4273 3.75 15.3711 3.75ZM15.3711 5.77725C18.3748 5.77725 18.7311 5.7885 19.9176 5.8425C21.0141 5.89275 21.6096 6.075 22.0063 6.23025C22.5313 6.4335 22.9063 6.678 23.3001 7.071C23.6938 7.46475 23.9376 7.83975 24.1408 8.36475C24.2953 8.7615 24.4783 9.357 24.5286 10.4535C24.5826 11.64 24.5938 11.9963 24.5938 15C24.5938 18.0037 24.5826 18.36 24.5286 19.5465C24.4783 20.643 24.2961 21.2385 24.1408 21.6353C23.9608 22.1239 23.6735 22.566 23.3001 22.929C22.9372 23.3025 22.495 23.5898 22.0063 23.7698C21.6096 23.9242 21.0141 24.1073 19.9176 24.1575C18.7311 24.2115 18.3756 24.2228 15.3711 24.2228C12.3666 24.2228 12.0111 24.2115 10.8246 24.1575C9.72809 24.1073 9.13259 23.925 8.73584 23.7698C8.24719 23.5897 7.8051 23.3024 7.44209 22.929C7.06873 22.566 6.78144 22.1239 6.60134 21.6353C6.44684 21.2385 6.26384 20.643 6.21359 19.5465C6.15959 18.36 6.14834 18.0037 6.14834 15C6.14834 11.9963 6.15959 11.64 6.21359 10.4535C6.26384 9.357 6.44609 8.7615 6.60134 8.36475C6.80459 7.83975 7.04909 7.46475 7.44209 7.071C7.80505 6.69753 8.24715 6.41023 8.73584 6.23025C9.13259 6.07575 9.72809 5.89275 10.8246 5.8425C12.0111 5.7885 12.3673 5.77725 15.3711 5.77725Z" fill="white"/>
<path fill-rule="evenodd" clip-rule="evenodd" d="M15.3714 18.7537C14.8784 18.7537 14.3903 18.6566 13.9349 18.468C13.4794 18.2794 13.0656 18.0029 12.7171 17.6543C12.3685 17.3057 12.092 16.8919 11.9034 16.4365C11.7147 15.9811 11.6176 15.4929 11.6176 15C11.6176 14.507 11.7147 14.0189 11.9034 13.5635C12.092 13.1081 12.3685 12.6942 12.7171 12.3457C13.0656 11.9971 13.4794 11.7206 13.9349 11.532C14.3903 11.3433 14.8784 11.2462 15.3714 11.2462C16.3669 11.2462 17.3217 11.6417 18.0257 12.3457C18.7296 13.0496 19.1251 14.0044 19.1251 15C19.1251 15.9955 18.7296 16.9503 18.0257 17.6543C17.3217 18.3582 16.3669 18.7537 15.3714 18.7537ZM15.3714 9.21748C13.8378 9.21748 12.367 9.82671 11.2825 10.9111C10.1981 11.9956 9.58887 13.4664 9.58887 15C9.58887 16.5336 10.1981 18.0044 11.2825 19.0888C12.367 20.1733 13.8378 20.7825 15.3714 20.7825C16.905 20.7825 18.3758 20.1733 19.4602 19.0888C20.5446 18.0044 21.1539 16.5336 21.1539 15C21.1539 13.4664 20.5446 11.9956 19.4602 10.9111C18.3758 9.82671 16.905 9.21748 15.3714 9.21748ZM22.8361 9.11248C22.8361 9.475 22.6921 9.82267 22.4358 10.079C22.1794 10.3353 21.8318 10.4794 21.4692 10.4794C21.1067 10.4794 20.7591 10.3353 20.5027 10.079C20.2464 9.82267 20.1024 9.475 20.1024 9.11248C20.1024 8.74996 20.2464 8.40229 20.5027 8.14595C20.7591 7.88962 21.1067 7.74561 21.4692 7.74561C21.8318 7.74561 22.1794 7.88962 22.4358 8.14595C22.6921 8.40229 22.8361 8.74996 22.8361 9.11248Z" fill="white"/>
</svg>
