<svg width="32" height="32" viewBox="0 0 32 32" fill="none" xmlns="http://www.w3.org/2000/svg">
<path d="M25.3335 18.6667V8.00004C25.3335 6.53337 24.1335 5.33337 22.6668 5.33337H4.00016C2.5335 5.33337 1.3335 6.53337 1.3335 8.00004V18.6667C1.3335 20.1334 2.5335 21.3334 4.00016 21.3334H22.6668C24.1335 21.3334 25.3335 20.1334 25.3335 18.6667ZM22.6668 18.6667H4.00016V8.00004H22.6668V18.6667ZM13.3335 9.33337C11.1202 9.33337 9.3335 11.12 9.3335 13.3334C9.3335 15.5467 11.1202 17.3334 13.3335 17.3334C15.5468 17.3334 17.3335 15.5467 17.3335 13.3334C17.3335 11.12 15.5468 9.33337 13.3335 9.33337ZM30.6668 9.33337V24C30.6668 25.4667 29.4668 26.6667 28.0002 26.6667H5.3335V24H28.0002V9.33337H30.6668Z" fill="#FF304F"/>
</svg>
