<svg width="32" height="32" viewBox="0 0 32 32" fill="none" xmlns="http://www.w3.org/2000/svg">
<path d="M28.5441 15.2167L16.7707 3.44338C16.2774 2.95004 15.5974 2.67004 14.8907 2.67004H5.33073C3.86406 2.67004 2.66406 3.87004 2.66406 5.33671V14.8967C2.66406 15.6034 2.94406 16.2834 3.45073 16.7767L15.2241 28.55C16.2641 29.59 17.9574 29.59 18.9974 28.55L28.5574 18.99C29.5974 17.95 29.5974 16.27 28.5441 15.2167ZM17.1041 26.67L5.33073 14.8967V5.33671H14.8907L26.6641 17.11L17.1041 26.67Z" fill="#FF304F"/>
<path d="M8.66406 10.67C9.76863 10.67 10.6641 9.77461 10.6641 8.67004C10.6641 7.56547 9.76863 6.67004 8.66406 6.67004C7.55949 6.67004 6.66406 7.56547 6.66406 8.67004C6.66406 9.77461 7.55949 10.67 8.66406 10.67Z" fill="#FF304F"/>
</svg>
