<svg width="26" height="25" viewBox="0 0 26 25" fill="none" xmlns="http://www.w3.org/2000/svg">
<path d="M12.9235 0C6.06222 0 0.478352 5.37823 0.475932 11.9879C0.47432 14.1016 1.04851 16.1645 2.13722 17.9815L0.371094 24.1936L6.97029 22.5266C8.80595 23.4868 10.847 23.9877 12.9187 23.9863H12.9235C19.7848 23.9863 25.3687 18.6073 25.3711 11.9976C25.3727 8.79597 24.0792 5.78226 21.7283 3.51694C19.3784 1.25081 16.2534 0.000806452 12.9235 0ZM12.9235 21.9613H12.9195C11.063 21.9613 9.24206 21.4806 7.65335 20.5726L7.27432 20.3565L3.3598 21.3452L4.40496 17.6677L4.159 17.2911C3.12585 15.7154 2.57588 13.8721 2.57674 11.9879C2.57916 6.49355 7.22109 2.025 12.9275 2.025C15.6904 2.02581 18.288 3.06371 20.2421 4.94677C22.1961 6.82984 23.2711 9.33387 23.2695 11.9968C23.2671 17.4911 18.6259 21.9613 12.9227 21.9613H12.9235ZM18.5985 14.4976C18.2872 14.3484 16.7582 13.6234 16.4727 13.5226C16.188 13.4234 15.9808 13.3718 15.7735 13.6718C15.5671 13.9718 14.9703 14.6468 14.7896 14.846C14.6074 15.046 14.4259 15.0702 14.1146 14.921C13.8034 14.771 12.8009 14.4548 11.6138 13.4339C10.6888 12.6403 10.0646 11.6597 9.88319 11.3589C9.70174 11.0597 9.86383 10.8976 10.0195 10.7484C10.159 10.6153 10.3308 10.3992 10.4856 10.2242C10.6404 10.0492 10.6921 9.92419 10.7969 9.72419C10.9001 9.525 10.8485 9.34919 10.7703 9.2C10.6921 9.04919 10.0711 7.575 9.81061 6.97581C9.559 6.39194 9.30254 6.47016 9.11142 6.46048C8.92996 6.45242 8.72351 6.45 8.51464 6.45C8.309 6.45 7.97109 6.525 7.68561 6.825C7.40093 7.125 6.5969 7.84919 6.5969 9.32339C6.5969 10.7984 7.71142 12.2226 7.86706 12.4226C8.02271 12.6218 10.0606 15.6484 13.1808 16.9468C13.9227 17.254 14.5017 17.4387 14.9542 17.5774C15.6993 17.8056 16.3775 17.7726 16.913 17.696C17.5098 17.6097 18.7534 16.9718 19.0114 16.2726C19.2711 15.5734 19.2711 14.9734 19.1937 14.8484C19.1179 14.7234 18.9098 14.6484 18.5985 14.4976Z" fill="white"/>
</svg>
