<svg width="24" height="24" viewBox="0 0 24 24" fill="none" xmlns="http://www.w3.org/2000/svg">
<g clip-path="url(#clip0_1158_82)">
<path d="M0.96 4.46411C0.429912 4.46411 0 4.8939 0 5.42411V18.5761C0 19.1063 0.430128 19.5361 0.96 19.5361H23.04C23.5701 19.5361 24 19.1063 24 18.5761V5.42411C24 4.89393 23.5699 4.46411 23.04 4.46411H0.96ZM14.334 8.95586C14.9181 8.95586 15.3862 9.08488 15.6847 9.20486L15.4807 10.4881L15.3457 10.4199C15.0677 10.2999 14.7105 10.1844 14.2177 10.1926C13.6279 10.1926 13.3553 10.4557 13.3553 10.7019C13.3518 10.9792 13.6739 11.1622 14.2005 11.4361C15.0697 11.8588 15.4714 12.3712 15.4658 13.0449C15.4541 14.2741 14.426 15.0684 12.8423 15.0684C12.1666 15.0609 11.5156 14.9179 11.1637 14.7526L11.3753 13.4266L11.5695 13.5211C12.0643 13.7422 12.3847 13.8316 12.9877 13.8316C13.4208 13.8316 13.8856 13.6503 13.8893 13.2534C13.8921 12.9942 13.695 12.8094 13.1085 12.5191C12.537 12.2358 11.7794 11.7613 11.7878 10.9104C11.7967 9.7593 12.8453 8.95586 14.334 8.95586ZM2.12249 9.14411H4.55474C4.88227 9.1565 5.1467 9.26195 5.238 9.61737L5.76226 12.3234C5.76233 12.3236 5.76216 12.3246 5.76226 12.3249L5.91974 13.1356L7.39649 9.14411H8.994L6.61949 14.9866L5.02349 14.9881L3.753 10.2736C4.50895 10.6741 5.15254 11.1375 5.52526 11.7751C5.42916 11.5733 5.30254 11.3456 5.14051 11.1211C4.95182 10.8597 4.54433 10.5222 4.374 10.3786C3.78048 9.87827 2.97444 9.47418 2.10374 9.26037L2.12249 9.14411ZM9.62926 9.15086H11.1915L10.2142 14.9844H8.652L9.62926 9.15086ZM18.453 9.15086H19.6365L20.8755 14.9844H19.455C19.455 14.9844 19.3141 14.3142 19.2683 14.1099C19.045 14.1099 17.4834 14.1076 17.3077 14.1076C17.2483 14.2655 16.9853 14.9843 16.9853 14.9843H15.378L17.6513 9.63537C17.8122 9.25526 18.0865 9.15086 18.453 9.15086ZM18.5693 10.7199C18.4924 10.9368 18.3585 11.2872 18.3675 11.2719C18.3675 11.2719 17.8866 12.5544 17.7608 12.8874L19.0245 12.8866C18.9071 12.3303 18.7896 11.7741 18.672 11.2179L18.5693 10.7199V10.7199Z" fill="#1434CB"/>
</g>
<defs>
<clipPath id="clip0_1158_82">
<rect width="24" height="24" fill="white"/>
</clipPath>
</defs>
</svg>
